<svg width="164" height="164" viewBox="0 0 164 164" fill="none" xmlns="http://www.w3.org/2000/svg">
<rect width="164" height="164" rx="82" fill="white"/>
<path d="M20.5 116.167V75.1667H34.1667L41 85.4167L61.5 75.1667H68.3333L75.1667 54.6667H88.8333H109.333L116.167 75.1667H129.833C135.27 75.1667 140.485 77.3265 144.329 81.171C148.174 85.0155 150.333 90.2297 150.333 95.6667C150.333 101.104 148.174 106.318 144.329 110.162C140.485 114.007 135.27 116.167 129.833 116.167H61.5L41 105.917L34.1667 116.167H20.5Z" fill="#E69EA0"/>
<path d="M116.167 75.1667L109.333 54.6667H75.1667L68.3333 75.1667M88.8333 54.6667V41C88.8333 39.1877 89.5533 37.4496 90.8348 36.1681C92.1163 34.8866 93.8544 34.1667 95.6667 34.1667H102.5M20.5 75.1667V116.167H34.1667L41 105.917L61.5 116.167H129.833C135.27 116.167 140.485 114.007 144.329 110.162C148.174 106.318 150.333 101.104 150.333 95.6667C150.333 90.2297 148.174 85.0155 144.329 81.171C140.485 77.3265 135.27 75.1667 129.833 75.1667H61.5L41 85.4167L34.1667 75.1667H20.5Z" stroke="#394963" stroke-width="2" stroke-linecap="round" stroke-linejoin="round"/>
<path d="M67.72 109.816L69.232 109.504V110.62H74.26V108.484H69.952C69.636 108.484 69.35 108.46 69.094 108.412C68.842 108.364 68.626 108.278 68.446 108.154C68.27 108.026 68.134 107.85 68.038 107.626C67.946 107.398 67.9 107.108 67.9 106.756V105.16C67.9 104.816 67.95 104.538 68.05 104.326C68.15 104.11 68.29 103.942 68.47 103.822C68.65 103.702 68.866 103.622 69.118 103.582C69.37 103.538 69.648 103.516 69.952 103.516H73.588C73.896 103.516 74.176 103.538 74.428 103.582C74.68 103.622 74.896 103.702 75.076 103.822C75.26 103.942 75.402 104.11 75.502 104.326C75.602 104.538 75.652 104.816 75.652 105.16V105.76L74.14 106.06V104.98H69.412V107.02H73.708C74.016 107.02 74.296 107.042 74.548 107.086C74.8 107.126 75.016 107.206 75.196 107.326C75.38 107.446 75.522 107.614 75.622 107.83C75.722 108.042 75.772 108.32 75.772 108.664V110.368C75.772 111.076 75.588 111.54 75.22 111.76C74.856 111.976 74.352 112.084 73.708 112.084H69.772C69.456 112.084 69.17 112.06 68.914 112.012C68.662 111.968 68.446 111.884 68.266 111.76C68.09 111.632 67.954 111.456 67.858 111.232C67.766 111.008 67.72 110.72 67.72 110.368V109.816ZM77.5819 110.836V106H79.0699V110.716H82.2859V106H83.7739V110.836C83.7739 111.344 83.6419 111.676 83.3779 111.832C83.1179 111.984 82.7579 112.06 82.2979 112.06H79.0459C78.5859 112.06 78.2259 111.984 77.9659 111.832C77.7099 111.676 77.5819 111.344 77.5819 110.836ZM85.8456 112.012V103.312H87.3336V106.588C87.4176 106.36 87.5776 106.194 87.8136 106.09C88.0536 105.982 88.3736 105.928 88.7736 105.928H90.7416C91.1896 105.928 91.5576 106.006 91.8456 106.162C92.1336 106.314 92.2776 106.644 92.2776 107.152V110.776C92.2776 111.3 92.1416 111.648 91.8696 111.82C91.5976 111.988 91.2216 112.072 90.7416 112.072H88.7736C88.3736 112.072 88.0536 112.018 87.8136 111.91C87.5776 111.798 87.4176 111.628 87.3336 111.4V112.012H85.8456ZM87.3336 110.716H90.7896V107.272H87.3336V110.716ZM94.2114 105.16C94.2114 104.476 94.4014 104.032 94.7814 103.828C95.1654 103.62 95.6594 103.516 96.2634 103.516H100.859C101.467 103.516 101.963 103.62 102.347 103.828C102.731 104.032 102.923 104.476 102.923 105.16V110.368C102.923 111.08 102.739 111.544 102.371 111.76C102.007 111.976 101.503 112.084 100.859 112.084H96.2634C95.6194 112.084 95.1154 111.976 94.7514 111.76C94.3914 111.54 94.2114 111.076 94.2114 110.368V105.16ZM95.7954 104.98V110.62H101.339V104.98H95.7954ZM99.8394 113.692L98.0514 109.228L99.1674 108.736L101.459 113.692H99.8394ZM104.958 105.16C104.958 104.572 105.116 104.152 105.432 103.9C105.752 103.644 106.278 103.516 107.01 103.516H110.717C111.458 103.516 111.986 103.644 112.302 103.9C112.622 104.152 112.782 104.572 112.782 105.16V106.336L111.198 106.624V104.98H106.542V110.62H111.246V108.82L112.83 109.132V110.368C112.83 110.988 112.672 111.43 112.356 111.694C112.044 111.954 111.514 112.084 110.766 112.084H107.01C106.262 112.084 105.732 111.954 105.42 111.694C105.112 111.43 104.958 110.988 104.958 110.368V105.16ZM113.699 112L118.007 103.6H119.255L123.623 112H121.751L120.749 110.044H116.441L115.439 112H113.699ZM117.179 108.604H120.011L118.595 105.85L117.179 108.604ZM126.296 112V105.064H122.96V103.6H131.216V105.064H127.88V112H126.296Z" fill="#394963"/>
<circle cx="94" cy="89" r="10" fill="#394963"/>
<circle cx="94" cy="89" r="7" fill="white"/>
<path d="M128.277 73.8564C128.273 74.0509 128.188 74.9155 128.068 75.7925C127.978 76.4502 128.057 76.921 128.106 76.9316C128.8 77.0821 128.135 75.5367 128.228 75.1622C128.288 74.9175 128.423 74.5744 128.471 74.7991C128.686 75.8075 128.472 76.7922 128.539 76.6041C128.647 76.2991 128.675 75.51 128.737 75.0483C128.815 74.4588 128.893 74.2721 128.932 74.2047C128.954 74.1661 128.883 74.8317 128.774 75.7716C128.728 76.1735 128.737 76.427 128.743 76.5368C128.75 76.6466 128.763 76.606 128.772 76.5645C128.792 76.4824 128.798 76.3921 128.81 76.3402C128.812 76.331 128.831 76.3745 128.849 76.3777C129.228 76.4452 128.925 75.2771 128.952 75.1105C128.979 74.9397 129.016 74.7737 129.044 74.6053C129.073 74.4346 129.11 74.214 129.15 73.899C129.161 73.8322 129.175 73.7896 129.207 73.7204C129.238 73.6511 129.287 73.5565 129.337 73.459" stroke="white" stroke-width="2" stroke-linecap="round" stroke-linejoin="round"/>
<path d="M128.724 73.9119C128.72 73.9119 128.687 73.9422 128.49 74.4422C128.307 74.9058 128.022 75.82 127.852 76.3605C127.681 76.9009 127.651 77.0461 127.623 77.0799C127.577 77.135 127.527 76.4588 127.502 75.6931C127.487 75.2226 127.642 74.87 127.74 74.6218C127.821 74.4161 127.803 74.2545 127.799 74.1428C127.797 74.0944 127.742 74.0721 127.7 74.0664C127.658 74.0608 127.616 74.0748 127.581 74.0662C127.508 74.0483 127.465 73.961 127.409 73.9236C127.383 73.9061 127.341 73.9402 127.314 73.9713C127.201 74.0982 127.136 74.2653 127.033 74.4079C126.93 74.5501 126.908 74.7304 126.886 74.9743C126.85 75.3852 126.838 75.5597 126.85 75.9511C126.862 76.3698 127.056 76.5055 127.745 77.5079C127.965 77.8288 128.241 78.0929 128.366 78.1967C128.454 78.2696 128.222 77.7189 127.862 77.1022C127.747 76.905 127.757 76.9497 128.055 77.3587C128.353 77.7678 128.935 78.5416 129.224 78.8966C129.513 79.2515 129.49 79.1642 129.327 78.8331C129.163 78.5021 128.86 77.93 128.659 77.5311C128.356 76.9297 128.254 76.6673 128.234 76.6228C128.215 76.5791 128.816 77.1613 129.674 77.965C130.024 78.2926 130.169 78.4905 130.225 78.5725C130.282 78.6545 130.237 78.623 130.191 78.5743C130.088 78.4676 129.886 78.2248 129.486 77.8663C128.981 77.4131 128.555 77.2376 128.475 77.2461C128.358 77.2585 128.846 78.2005 129.111 79.0725C129.347 79.8459 127.695 78.0005 127.549 77.8292C127.53 77.8074 127.889 78.443 128.461 79.358C128.738 79.8009 129.029 80.0358 129.459 80.3398C130.259 80.9049 130.587 80.865 130.883 80.9486C130.991 80.9792 131.13 81.0502 130.922 80.8379C130.713 80.6256 130.151 80.1382 130.051 80.0174C129.851 79.777 131.158 80.6409 131.455 80.8392C131.572 80.9179 130.583 80.5654 130.231 80.4607C129.879 80.3559 129.928 80.4108 130.196 80.6246C130.946 81.2093 131.497 81.6152 131.684 81.6753C131.818 81.7117 132.029 81.7599 132.342 81.8506" stroke="white" stroke-width="2" stroke-linecap="round" stroke-linejoin="round"/>
<path d="M130.317 79.1421C130.35 79.1631 130.704 79.4595 131.304 79.9758C131.959 80.5407 132.478 80.8199 132.312 80.7747C132.028 80.6974 131.354 80.4581 131.046 80.3559C130.737 80.2538 130.818 80.2827 131.331 80.545C131.844 80.8072 132.786 81.3019 133.77 81.7894" stroke="white" stroke-width="2" stroke-linecap="round" stroke-linejoin="round"/>
<path d="M132.311 81.8411C132.376 81.8499 132.961 81.9998 133.62 82.0963C134.126 82.1705 134.62 82.0618 134.857 81.9984C135.239 81.8963 133.375 81.81 133.052 81.7024C133.012 81.6892 132.992 81.6436 133.003 81.6192C133.036 81.5524 133.355 81.568 133.658 81.5569C133.717 81.5547 133.027 81.2338 132.288 80.8383C131.896 80.6282 131.764 80.4711 131.685 80.3772C131.66 80.3475 131.709 80.3277 131.749 80.3253C131.829 80.3204 132.225 80.4562 132.855 80.6429C133.128 80.7236 133.315 80.7369 133.742 80.7618C134.831 80.8254 135.471 80.8325 135.376 80.8223C135.167 80.8001 134.709 80.8987 134.181 80.9804C134.013 81.0065 134.054 81.0453 134.185 81.0582C135.071 81.1453 135.744 80.9083 135.791 80.8762C135.805 80.8662 135.746 80.838 135.699 80.8324C135.605 80.8212 135.149 81.0959 134.562 81.4832C134.372 81.6085 134.439 81.6418 134.646 81.6479C135.704 81.6794 136.075 81.5362 136.207 81.4357C136.229 81.4183 136.164 81.3787 136.122 81.3662C135.949 81.314 135.353 81.6759 135.014 81.9005C135.003 81.9079 135.086 81.8949 135.753 81.3999C136.42 80.9049 137.687 79.9328 138.373 79.3917C139.059 78.8507 139.126 78.7702 139.141 78.7467C139.458 78.2386 137.885 79.9466 137.815 79.9998C137.811 80.0029 137.902 79.9599 138.337 79.6367C138.773 79.3134 139.558 78.7118 140.084 78.2893C140.609 77.8668 140.852 77.6417 140.948 77.545C140.999 77.4947 140.423 78.1064 139.678 78.9841C139.432 79.2739 139.494 79.2803 139.57 79.2585C140.015 79.1305 140.637 78.5552 141.129 78.0774C141.277 77.9332 141.19 77.9585 141.124 77.9946C140.86 78.1412 140.582 78.6117 140.347 79.0014C140.272 79.1255 140.326 79.1214 140.386 79.0991C140.73 78.9709 141.122 78.6024 141.363 78.3664C141.794 77.9437 142.008 77.8425 142.198 77.751C142.249 77.7266 142.193 77.8814 142.178 77.921C142.161 77.9639 142.297 77.8793 142.349 77.8998C142.483 77.9526 142.171 78.1699 142.077 78.3172C141.982 78.4671 141.836 78.5902 141.705 78.7258C141.582 78.8527 141.456 78.9612 141.336 79.0935C141.277 79.1615 141.204 79.2415 141.12 79.3068C141.078 79.3271 141.037 79.3211 140.996 79.315" stroke="white" stroke-width="2" stroke-linecap="round" stroke-linejoin="round"/>
<path d="M138.55 78.9392C138.594 78.9287 138.762 78.7969 138.994 78.5613C139.149 78.4026 139.536 78.1388 139.936 77.7859C140.51 77.2789 140.526 77.0277 140.558 76.8948C140.571 76.8418 140.525 76.812 140.487 76.7981C140.45 76.7841 140.409 76.7854 140.374 76.804C140.226 76.8826 140.152 77.0474 140.016 77.1661C139.88 77.2853 139.75 77.4111 139.628 77.5686C139.517 77.7132 139.376 77.8282 139.238 77.9477C139.158 78.0114 139.079 78.0666 139.011 78.1128C138.977 78.1379 138.947 78.1665 138.86 78.2307" stroke="white" stroke-width="2" stroke-linecap="round" stroke-linejoin="round"/>
<path d="M140.987 78.2811C140.979 78.2847 140.91 78.3062 140.228 78.6152C139.608 78.8963 138.447 79.4629 137.867 79.7443C137.288 80.0258 137.331 80.0135 137.596 79.8985C137.861 79.7835 138.347 79.5661 138.567 79.457C138.786 79.3479 138.724 79.3537 138.459 79.4273C137.725 79.6312 136.995 79.9195 136.641 80.1199C136.569 80.1603 137.141 80.0678 137.84 79.8735C138.058 79.8126 137.991 79.7924 137.925 79.7889C137.792 79.7819 137.642 79.8129 137.433 79.875C137.123 79.9668 136.501 80.3222 135.85 80.6962C135.649 80.8082 135.712 80.7621 135.864 80.7096C136.016 80.6571 136.256 80.5996 136.504 80.5404" stroke="white" stroke-width="2" stroke-linecap="round" stroke-linejoin="round"/>
<path d="M136.92 81.3014C136.996 81.3405 137.28 81.4217 137.826 81.4199C138.265 81.4185 138.644 81.1562 138.982 80.915C139.458 80.5748 139.648 80.1616 139.987 79.8108C140.039 79.757 139.961 79.7441 139.89 79.7495C139.82 79.7548 139.744 79.7673 139.624 79.7967C139.504 79.8261 139.341 79.872 139.174 79.9193" stroke="white" stroke-width="2" stroke-linecap="round" stroke-linejoin="round"/>
<path d="M126.864 76.9403C126.841 76.9327 126.787 76.9171 126.762 76.924C126.665 76.9513 126.886 77.1979 126.936 77.2943C127.014 77.4429 127.074 77.6352 127.151 77.7944C127.198 77.8922 127.257 77.9753 127.4 78.2388C127.466 78.3616 127.6 78.566 127.696 78.7325C127.761 78.8447 127.816 78.9252 127.914 79.0918C128.209 79.5916 128.3 79.7019 128.371 79.793C128.456 79.9011 128.615 80.0529 128.693 80.159C128.763 80.2555 128.848 80.3144 128.919 80.3698C128.983 80.4202 129.073 80.5406 129.16 80.6204C129.251 80.7034 129.359 80.8294 129.437 80.8874C129.538 80.9618 129.624 81.0371 129.712 81.106C129.837 81.2052 130.042 81.3576 130.132 81.4188C130.223 81.4798 130.333 81.5438 130.638 81.7502C130.755 81.8293 130.933 81.885 131.145 81.9519C131.409 82.0352 131.784 82.1624 131.978 82.2164C132.136 82.2608 132.249 82.3192 132.347 82.3525C132.775 82.4978 132.976 82.5237 133.115 82.5481C133.245 82.5706 133.342 82.5724 133.499 82.5773C133.99 82.5927 134.246 82.5581 134.404 82.5407C134.49 82.5311 134.607 82.4988 134.886 82.4141C135 82.3793 135.057 82.3232 135.103 82.3109C135.129 82.304 135.13 82.3674 135.161 82.3889C135.234 82.4405 135.391 82.4115 135.548 82.3906C135.64 82.3783 135.735 82.3627 135.842 82.337C136.028 82.2924 136.114 82.2562 136.251 82.2306C136.358 82.2105 136.449 82.1754 136.556 82.1508C136.687 82.1206 136.873 82.0588 137.03 82.0092C137.202 81.955 137.431 81.8893 137.555 81.8429C137.662 81.7987 137.74 81.7586 137.806 81.7125C137.824 81.6994 137.845 81.6851 137.843 81.6589" stroke="white" stroke-width="2" stroke-linecap="round" stroke-linejoin="round"/>
<path d="M138.547 80.9764C138.562 80.9795 138.626 80.9958 138.709 80.9946C138.85 80.9924 138.932 80.9211 139.013 80.9001C139.094 80.8795 139.188 80.8403 139.324 80.7837C139.408 80.7488 139.478 80.6936 139.532 80.6421C139.585 80.5923 139.678 80.5534 139.768 80.503C139.883 80.4398 139.988 80.3657 140.072 80.3114C140.141 80.2664 140.207 80.2149 140.297 80.1582C140.353 80.1152 140.397 80.07 140.447 80.0132C140.475 79.9796 140.51 79.9366 140.571 79.8607" stroke="white" stroke-width="2" stroke-linecap="round" stroke-linejoin="round"/>
<path d="M138.582 78.5715C138.582 78.5703 138.592 78.5401 138.602 78.5011C138.614 78.4548 138.535 78.6084 138.498 78.6572C138.456 78.7126 138.373 78.7043 138.272 78.7769C138.196 78.8316 138.144 78.8674 138.066 78.9206C137.956 78.9946 137.888 79.026 137.814 79.091C137.753 79.1444 137.673 79.174 137.601 79.2107C137.497 79.2638 137.206 79.3367 137.011 79.3991C136.912 79.4309 136.703 79.5171 136.53 79.5684C136.306 79.635 136.112 79.6629 135.981 79.6902C135.88 79.7112 135.74 79.7324 135.628 79.7476C135.501 79.7649 135.4 79.7677 135.308 79.7803C135.213 79.7936 135.093 79.8156 134.759 79.8189C134.518 79.8212 134.349 79.7937 134.049 79.7707C133.684 79.7427 133.437 79.7205 133.319 79.6973C132.998 79.6348 132.881 79.5993 132.653 79.547C132.432 79.4963 132.261 79.4001 132.201 79.3567C132.17 79.3365 132.137 79.3204 132.102 79.3068C132.085 79.2997 132.067 79.2923 132.008 79.268" stroke="white" stroke-width="2" stroke-linecap="round" stroke-linejoin="round"/>
<path d="M131.404 79.29L131.373 79.2568" stroke="white" stroke-width="2" stroke-linecap="round" stroke-linejoin="round"/>
<path d="M129.671 77.943C129.67 77.9275 129.649 77.87 129.614 77.8174C129.577 77.7614 129.541 77.6744 129.503 77.6048C129.472 77.5452 129.434 77.4845 129.402 77.4249C129.381 77.3791 129.364 77.3368 129.352 77.3047C129.346 77.288 129.339 77.2706 129.307 77.2159" stroke="white" stroke-width="2" stroke-linecap="round" stroke-linejoin="round"/>
<path d="M127.437 59.1071C127.429 59.1777 127.391 59.4025 127.343 59.5273C127.33 59.5606 127.295 59.5047 127.279 59.4575C127.248 59.3683 127.242 58.9512 127.214 58.4924C127.192 58.4033 127.152 58.606 127.13 58.729C127.108 58.852 127.104 58.8892 127.101 58.9276" stroke="white" stroke-width="2" stroke-linecap="round" stroke-linejoin="round"/>
<path d="M125.485 49.5225C127.866 54.3952 128.325 57.9811 127.627 60.585L127.535 60.9297L127.831 61.1289C128.241 61.4042 128.645 61.6911 129.042 61.9883L129.358 62.2246L129.661 61.9727C132.65 59.4861 135.575 58.2832 138.173 58.0801C138.418 58.061 138.659 58.0511 138.9 58.0488C142.498 58.0158 145.578 59.8495 147.318 62.6943C149.172 65.726 149.484 69.9405 147.359 74.0703C146.014 76.6817 144.137 79.4294 141.746 81.4844C139.36 83.5357 136.457 84.8724 133.161 84.6104C130.194 84.374 126.977 82.1373 125.568 78.8867C125.145 77.9111 124.902 76.8335 124.901 75.7119L124.9 75.2129H116.892L116.832 74.9824C115.988 71.7198 115.63 68.3495 115.979 65.4941L116.02 65.1553L115.719 64.9932C114.238 64.1961 113.079 63.0799 112.347 61.6318C110.883 58.737 111.224 54.6058 114.115 49.4492H114.116L114.28 49.1553L117.88 53.0801L118.092 53.3115L118.392 53.2207C119.909 52.7651 121.2 52.8441 122.621 53.2148L123.001 53.3145L123.188 52.9688L125.275 49.0938L125.485 49.5225ZM138.904 58.7139C138.789 58.715 138.672 58.7178 138.555 58.7227L138.201 58.7441C135.569 58.9499 132.579 60.2044 129.51 62.8838L129.373 63.002L129.233 62.8926C128.764 62.5297 128.286 62.183 127.799 61.8516L127.328 61.5312L127.072 62.0391C125.85 64.4506 123.505 65.7304 121.127 66.4209L121.095 66.4287L121.057 66.4268H121.058C119.648 66.3211 118.338 66.0581 117.168 65.6367L116.558 65.417L116.501 66.0635C116.287 68.4933 116.527 71.3619 117.187 74.1621L117.278 74.5479H124.978L125.059 74.1475C125.104 73.9253 125.157 73.706 125.22 73.4912C125.786 71.5807 127.118 69.6345 129.455 67.7939C131.466 66.2107 133.344 66.5447 134.229 67.6387C134.661 68.1734 134.881 68.9118 134.792 69.6621L134.77 69.8125C134.639 70.5601 134.2 71.3037 133.444 71.9004L133.288 72.0176C132.458 72.6173 131.889 73.2068 131.507 73.7695L130.978 74.5508H139.324L139.466 74.2871C139.784 73.6929 140.078 73.0252 140.34 72.2666L140.842 72.4531C138.926 78.0886 135.081 79.4316 132.667 78.6045C131.403 78.1712 130.439 77.1059 130.361 75.7529C130.282 74.3955 131.079 72.8547 133.039 71.4395L133.038 71.4385C133.708 70.9547 134.066 70.4121 134.213 69.8916L134.264 69.6699C134.366 69.0864 134.217 68.5457 133.868 68.1143C133.522 67.6858 132.956 67.3514 132.22 67.3389C131.49 67.3264 130.648 67.6302 129.722 68.3594C127.451 70.1477 126.218 71.9856 125.703 73.7227C125.188 75.4631 125.38 77.0955 126.021 78.5723C126.661 80.048 127.781 81.3324 129.063 82.2734C130.342 83.2126 131.818 83.8357 133.194 83.9453C136.397 84.2002 139.153 82.9156 141.461 80.9316C143.765 78.9508 145.618 76.2475 146.924 73.709C148.955 69.7625 148.645 65.9377 146.909 63.0996C145.284 60.4423 142.389 58.6788 138.904 58.7139ZM130.881 75.7549C130.963 76.7708 131.692 77.5829 132.795 77.9609C134.321 78.4836 136.49 78.1075 138.279 76.042L138.994 75.2148H130.838L130.881 75.7549ZM114.053 50.7725C111.732 55.3022 111.53 58.8015 112.781 61.2764C114.105 63.893 117.09 65.4287 120.959 65.748L121.053 65.7559L121.144 65.7285C123.502 65.0213 125.764 63.7159 126.801 61.333C127.004 60.8659 127.16 60.3514 127.263 59.79L126.379 59.3906C126.066 59.7883 125.686 60.0071 125.194 60.042C124.735 60.0744 124.138 59.9487 123.365 59.5801C123.507 58.6109 123.859 57.9069 124.332 57.5332C124.818 57.1494 125.551 57.0228 126.624 57.5449L127.433 57.9385L127.34 57.0439C127.171 55.4184 126.648 53.503 125.663 51.2412L125.253 50.2988L124.765 51.2031L123.33 53.8604L123.329 53.8623L123.228 54.0498L123.061 53.999L123.06 53.998C122.18 53.7296 121.412 53.5542 120.62 53.5371C119.823 53.5199 119.031 53.6637 118.094 53.9961L118.093 53.9971L117.965 54.042L114.866 50.6621L114.381 50.1328L114.053 50.7725ZM116.679 57.1973C117.234 57.2007 117.672 57.4454 118.007 57.8945C118.307 58.2973 118.525 58.8715 118.628 59.5801C117.398 60.1676 116.622 60.1332 116.115 59.8408C115.59 59.5376 115.184 58.8673 114.906 57.7979C115.622 57.3607 116.214 57.1944 116.679 57.1973Z" fill="#E69EA0" stroke="#394963"/>
<path d="M127.296 59.6209C127.296 59.5898 127.304 59.4738 127.358 59.0762C127.383 58.8902 127.396 58.7794 127.402 58.6624C127.409 58.5912 127.414 58.5184 127.42 58.3264C127.426 58.1681 127.438 57.8862 127.451 57.5958" stroke="#394963" stroke-linecap="round" stroke-linejoin="round"/>
<path d="M127.343 58.5641C127.335 58.5928 127.283 58.6881 127.219 58.7784C127.156 58.8683 127.064 58.9331 126.966 58.9928C126.866 59.0544 126.76 59.1201 126.671 59.2003C126.583 59.2791 126.516 59.3342 126.473 59.372C126.451 59.3925 126.431 59.4155 126.399 59.4741" stroke="#394963" stroke-linecap="round" stroke-linejoin="round"/>
</svg>
